<svg xmlns="http://www.w3.org/2000/svg" viewBox="0 0 782.09 781.9"><defs><style>.cls-1{fill:#fff;}</style></defs><title>image</title><g id="Layer_2" data-name="Layer 2"><g id="Layer_2-2" data-name="Layer 2"><path class="cls-1" d="M391,0A391,391,0,0,0,0,391c0,140,73.58,262.78,184.17,331.83l.48.31.91.57,1.23.76.4.24,0,0A389.09,389.09,0,0,0,391,781.9c215.92,0,391-175,391-390.95S606.87,0,391,0ZM615,404.77c-7.14,117.52-104.7,210.62-224,210.62C267,615.39,166.51,514.9,166.51,391S267,166.51,391,166.51a224.35,224.35,0,0,1,71.75,11.71C551.47,208.15,615.39,292.08,615.39,391q0,6.94-.42,13.79Z"/><path d="M615,404.74q.42-6.84.42-13.79c0-98.87-63.92-182.8-152.69-212.73-34.4-13.39-73.74-20.57-117-20.57C183.51,157.65,39,289.22,39,463.4c0,159.33,124,245.78,145.19,259.38C73.58,653.73,0,530.94,0,391A389.39,389.39,0,0,1,99.29,130.63c59.27-53.12,136.19-86.57,222-86.57,108.41,0,215.56,76.73,259.72,156.06C631,289.87,618.2,385.68,615,404.74Z"/><path d="M167.11,376.36q-.41,6.84-.41,13.79c0,98.87,63.91,182.8,152.69,212.73,34.4,13.39,73.74,20.57,117,20.57,162.16,0,306.69-131.57,306.69-305.75,0-159.33-124-245.78-145.19-259.38,110.59,69.05,184.17,191.84,184.17,331.83A389.43,389.43,0,0,1,682.8,650.47C623.53,703.59,546.61,737,460.76,737,352.35,737,245.2,660.31,201,581,151.09,491.23,163.89,395.42,167.11,376.36Z"/></g></g></svg>